<?xml version="1.0" standalone="no"?>
<!DOCTYPE svg PUBLIC "-//W3C//DTD SVG 20010904//EN"
 "http://www.w3.org/TR/2001/REC-SVG-20010904/DTD/svg10.dtd">
<svg version="1.0" xmlns="http://www.w3.org/2000/svg"
 width="2816.000000pt" height="1536.000000pt" viewBox="0 0 2816.000000 1536.000000"
 preserveAspectRatio="xMidYMid meet">

<g transform="translate(0.000000,1536.000000) scale(0.100000,-0.100000)"
fill="#000000" stroke="none">
<path d="M0 7680 l0 -7680 14080 0 14080 0 0 7680 0 7680 -14080 0 -14080 0 0
-7680z m5131 3435 c51 -9 411 -125 919 -295 459 -155 912 -305 1005 -335 381
-120 498 -167 601 -240 123 -88 216 -247 244 -417 6 -40 10 -445 10 -1128 0
-1112 -2 -1154 -46 -1450 -51 -348 -165 -710 -314 -998 -213 -414 -580 -828
-1035 -1169 -290 -217 -675 -465 -985 -633 -274 -149 -338 -180 -401 -196 -77
-20 -230 -22 -313 -5 -171 37 -988 526 -1411 845 -399 300 -744 667 -931 991
-219 379 -342 739 -413 1210 -37 246 -41 373 -41 1460 0 1024 1 1065 20 1139
30 119 82 209 170 296 97 97 166 130 464 227 127 41 368 121 536 178 168 57
397 133 510 170 113 37 264 87 335 112 438 152 661 224 731 237 105 19 242 19
345 1z m15679 -1176 c96 -11 298 -75 365 -115 204 -119 247 -349 92 -491 -135
-124 -363 -74 -423 94 -18 51 -17 138 1 200 15 52 68 116 105 128 30 9 25 22
-18 44 -58 29 -154 44 -287 44 -212 -1 -346 -51 -456 -172 -139 -151 -198
-374 -199 -742 l0 -147 243 -7 c133 -4 384 -5 557 -2 276 4 325 7 395 26 44
11 90 20 102 21 l22 0 3 -962 3 -963 26 -56 c15 -31 39 -65 55 -76 37 -26 107
-50 173 -59 l51 -7 0 -40 0 -40 -292 6 c-161 3 -384 3 -496 -1 -111 -4 -207
-5 -212 -4 -12 4 -13 62 -2 78 4 6 38 14 75 16 91 8 151 44 186 113 l26 49 0
806 0 805 -30 60 c-27 53 -37 63 -90 90 l-60 30 -368 3 -367 3 2 -868 c4 -918
3 -903 51 -974 47 -69 164 -118 285 -119 l42 0 0 -43 0 -44 -477 -2 c-263 -1
-507 -3 -543 -4 l-65 -2 0 45 0 45 70 7 c130 14 200 58 226 141 10 33 14 238
16 929 l4 888 -168 2 -168 3 -3 29 c-2 15 -1 40 3 54 l6 25 161 -4 162 -4 2
30 c1 17 5 82 8 145 17 408 186 705 492 862 224 115 466 158 714 127z m5060
-1482 c0 -914 4 -1493 10 -1525 24 -129 107 -204 245 -221 l50 -6 0 -40 0 -40
-240 -1 c-206 0 -253 -3 -335 -21 -52 -12 -98 -18 -102 -15 -4 4 -9 79 -10
167 l-3 160 -73 -97 c-99 -132 -168 -184 -307 -230 -61 -20 -89 -23 -215 -22
-166 0 -243 16 -355 71 -147 73 -267 190 -356 346 -55 97 -87 184 -116 319
-25 114 -27 141 -27 373 -1 206 2 265 17 332 84 381 261 625 550 758 108 50
179 66 318 72 222 10 364 -40 482 -167 l65 -70 5 82 c2 46 4 250 2 453 -2 313
-5 379 -19 430 -39 137 -99 190 -237 208 l-79 11 0 42 0 42 50 7 c27 4 92 4
142 0 123 -9 366 10 448 34 36 11 70 20 77 20 10 1 12 -324 13 -1472z m-7215
1339 c66 -30 140 -111 155 -167 16 -59 7 -155 -18 -206 -46 -90 -128 -143
-233 -151 -78 -5 -133 15 -197 73 -69 62 -100 186 -72 284 21 74 97 151 175
179 54 19 136 14 190 -12z m-7886 -121 c58 -9 131 -23 161 -31 84 -24 266
-115 353 -178 106 -76 107 -76 144 -61 39 17 58 51 73 135 6 36 16 71 22 78 6
6 30 12 53 12 l42 0 -3 -492 -3 -493 -53 0 -53 0 -7 40 c-29 168 -41 222 -69
305 -71 214 -165 343 -331 453 -186 122 -438 167 -675 118 -120 -25 -214 -75
-310 -165 -73 -68 -89 -88 -161 -200 -118 -183 -200 -445 -238 -761 -27 -233
-14 -579 32 -810 21 -105 98 -341 141 -433 75 -160 188 -300 308 -382 71 -49
200 -109 267 -125 38 -9 112 -15 188 -15 306 0 525 107 679 333 79 116 140
309 163 522 7 63 16 114 21 115 4 0 32 0 62 0 l55 0 0 -505 0 -505 -50 0 c-49
0 -49 0 -56 38 -9 56 -43 164 -55 179 -22 26 -58 12 -170 -68 -126 -89 -213
-134 -334 -172 -146 -45 -192 -52 -370 -51 -156 0 -181 3 -305 32 -303 73
-514 202 -691 423 -209 259 -305 549 -335 1004 -12 191 29 509 97 740 28 95
115 276 181 377 70 106 191 235 293 311 99 73 291 168 410 201 164 47 342 57
524 31z m2424 -854 c111 -29 247 -102 300 -161 84 -93 139 -229 157 -385 5
-51 10 -371 10 -735 1 -355 5 -665 9 -689 23 -116 120 -142 241 -66 22 14 45
25 52 25 18 0 58 -41 58 -60 0 -22 -129 -112 -199 -140 -170 -67 -385 -33
-480 76 -31 35 -67 121 -77 184 -4 22 -9 40 -13 40 -3 0 -17 -19 -31 -41 -70
-114 -193 -205 -347 -258 -241 -81 -511 -33 -664 120 -106 106 -143 211 -137
388 5 127 16 169 69 256 75 124 199 220 386 297 103 43 139 56 313 108 119 35
295 124 345 174 61 62 68 95 63 306 -6 193 -21 263 -77 351 -39 62 -127 107
-237 120 -156 20 -392 -43 -440 -117 -18 -26 -18 -28 1 -38 87 -50 145 -145
145 -236 -1 -168 -153 -283 -313 -236 -196 57 -235 294 -80 483 96 117 302
219 513 253 93 15 344 4 433 -19z m2402 -1 c141 -47 224 -157 233 -309 8 -148
-54 -252 -172 -286 -117 -34 -219 6 -269 105 -51 102 -33 201 52 290 38 40 40
45 26 59 -11 11 -35 16 -83 16 -89 0 -179 -42 -263 -122 -79 -75 -127 -148
-183 -281 -81 -192 -81 -193 -81 -802 0 -499 1 -539 19 -589 28 -82 84 -136
163 -161 36 -11 80 -20 98 -20 18 0 53 -3 79 -6 l46 -7 0 -43 0 -43 -547 -3
c-302 -2 -550 -2 -552 -1 -2 2 -5 22 -5 45 l-1 43 80 12 c124 19 188 73 204
173 13 83 23 1026 13 1340 -7 264 -9 277 -32 317 -40 71 -140 123 -237 123
-33 0 -33 0 -33 49 l0 49 243 5 c243 5 284 10 396 51 24 9 47 16 52 16 5 0 9
-107 10 -237 0 -157 3 -233 10 -223 5 8 35 58 67 110 79 132 192 244 292 292
150 71 245 80 375 38z m1575 5 c372 -87 570 -358 587 -802 l6 -143 -672 0
-671 0 0 -102 c0 -141 16 -312 40 -421 14 -67 38 -128 85 -224 60 -119 73
-138 144 -205 90 -85 173 -129 284 -152 95 -20 138 -20 235 -1 97 20 205 72
270 130 61 55 145 166 172 228 11 26 24 48 28 51 11 6 84 -21 93 -35 21 -35
-93 -238 -196 -348 -159 -169 -351 -245 -615 -244 -135 1 -233 19 -356 65
-119 45 -190 93 -304 208 -161 162 -233 312 -287 605 -24 130 -21 365 6 517
51 287 148 486 308 639 162 154 327 230 548 253 68 7 227 -3 295 -19z m5925
-9 c80 -21 211 -87 274 -136 166 -131 266 -371 278 -667 l6 -133 -667 0 -666
0 0 -158 c0 -308 38 -474 154 -672 115 -197 279 -290 511 -290 175 0 281 46
415 180 64 64 95 104 125 163 34 69 42 78 62 73 48 -13 73 -26 73 -40 0 -27
-109 -230 -155 -288 -92 -118 -226 -207 -380 -254 -84 -26 -102 -28 -270 -28
-206 0 -277 14 -423 84 -275 131 -445 380 -518 755 -28 141 -25 447 4 584 58
265 158 461 311 611 116 112 256 186 426 224 90 20 351 15 440 -8z m-4325
-930 c0 -590 4 -953 10 -987 6 -29 18 -69 28 -88 24 -45 102 -89 189 -105 l68
-12 3 -39 3 -38 -303 6 c-167 3 -388 2 -492 -3 -200 -10 -205 -9 -201 33 1 12
3 30 4 40 1 13 10 17 36 17 110 0 190 45 229 130 21 44 21 59 24 807 3 829 2
846 -53 933 -34 53 -90 80 -197 95 l-48 6 0 43 0 44 243 5 c188 5 262 10 332
26 50 10 98 20 108 20 16 1 17 -50 17 -933z m-7029 -2156 c37 -20 15 -87 -27
-78 -9 2 -23 13 -31 25 -13 19 -12 24 6 42 24 24 26 24 52 11z m527 -13 c23
-24 5 -37 -52 -37 -64 0 -76 -12 -84 -77 l-5 -46 62 6 61 7 0 -30 0 -30 -60 7
-60 6 0 -182 c0 -175 -1 -181 -20 -181 -11 0 -22 6 -25 13 -2 6 -7 88 -10 180
l-7 169 -29 -4 c-31 -5 -56 13 -44 32 3 5 21 10 40 10 32 0 33 1 44 61 6 34
16 68 23 77 34 41 132 52 166 19z m1530 -271 c-3 -273 -4 -281 -23 -281 -14 0
-21 8 -23 28 -4 29 -23 35 -42 13 -6 -8 -31 -23 -56 -32 -157 -60 -307 117
-236 279 22 50 83 101 134 112 45 10 112 -3 152 -30 l36 -24 0 108 c0 113 4
123 43 113 16 -4 17 -24 15 -286z m10227 280 c16 -12 18 -19 10 -42 -12 -35
-40 -42 -66 -18 -23 21 -24 32 -2 56 19 22 33 23 58 4z m-12635 -281 l0 -285
-30 0 -30 0 0 285 0 285 30 0 30 0 0 -285z m1140 270 c17 -20 -2 -65 -26 -65
-20 0 -54 28 -54 45 0 33 57 47 80 20z m6514 -1 c20 -19 20 -38 1 -54 -19 -16
-45 -9 -62 16 -12 19 -12 24 2 38 21 20 39 20 59 0z m1820 0 c10 -25 7 -542
-3 -548 -18 -11 -41 6 -41 31 0 14 -3 23 -7 21 -104 -53 -127 -60 -174 -56
-53 5 -103 37 -141 90 -33 46 -38 150 -10 204 50 97 154 138 249 99 21 -9 45
-23 55 -32 17 -15 18 -11 18 89 0 57 3 108 7 111 12 13 41 7 47 -9z m3660 10
c9 -3 16 -15 16 -25 0 -16 -8 -19 -59 -19 -64 0 -75 -7 -86 -58 -10 -47 7 -62
71 -62 56 0 68 -8 58 -35 -5 -13 -18 -16 -66 -13 l-59 3 1 -172 c1 -164 0
-172 -20 -178 -11 -3 -24 -3 -30 0 -6 4 -10 74 -10 181 l0 174 -41 0 c-33 0
-40 3 -37 18 2 11 15 19 38 22 34 5 35 7 40 55 6 56 22 89 48 104 19 11 111
15 136 5z m270 -16 c22 -35 -27 -74 -59 -48 -18 15 -20 56 -2 64 22 9 50 1 61
-16z m1269 8 c3 -7 6 -133 6 -280 l1 -266 -31 0 c-29 0 -31 2 -27 30 5 33 -3
38 -23 14 -19 -24 -85 -54 -116 -54 -142 0 -238 128 -199 264 39 134 194 189
297 106 l39 -31 0 116 c0 115 0 115 24 115 13 0 26 -6 29 -14z m-16419 -36
c175 -66 234 -279 114 -415 -22 -24 -63 -55 -93 -70 -30 -14 -55 -28 -55 -30
0 -3 15 -14 33 -25 43 -26 107 -26 141 1 14 11 30 17 36 14 20 -12 9 -44 -22
-67 -61 -43 -149 -27 -238 42 -19 15 -59 35 -89 45 -78 26 -118 52 -150 99
-60 89 -68 176 -22 272 62 132 203 187 345 134z m5852 -7 c52 -30 94 -107 94
-171 0 -42 -32 -93 -74 -120 -23 -14 -43 -28 -45 -29 -3 -2 24 -44 58 -94 35
-50 61 -92 58 -95 -2 -2 -18 -1 -35 2 -26 5 -41 21 -84 89 l-53 83 -85 4 c-47
2 -88 3 -92 1 -5 -2 -8 -42 -8 -89 l0 -84 -27 0 -28 0 -3 256 c-1 141 0 259 2
262 7 12 299 -2 322 -15z m6784 -90 c29 -65 72 -163 97 -218 24 -55 48 -103
52 -108 4 -4 33 53 64 125 114 267 130 303 141 310 17 12 56 9 56 -3 0 -11
-169 -391 -213 -479 -17 -35 -28 -45 -46 -45 -13 0 -28 7 -32 15 -22 37 -220
474 -225 496 -6 21 -3 24 24 24 28 0 32 -5 82 -117z m-12140 -158 c6 -156 13
-179 66 -201 43 -18 100 -5 141 30 28 24 28 25 31 165 l4 141 29 0 29 0 -2
-197 c-3 -193 -4 -198 -24 -201 -17 -2 -23 4 -28 28 l-6 32 -28 -21 c-37 -26
-111 -46 -143 -38 -40 10 -91 49 -113 87 -18 30 -21 53 -22 170 -1 74 0 139 3
143 3 5 17 7 31 5 l27 -3 5 -140z m829 121 c61 -32 71 -63 71 -227 0 -125 -2
-148 -16 -153 -21 -8 -34 1 -34 25 0 24 1 24 -57 -7 -125 -67 -260 17 -222
138 20 62 49 73 177 70 l104 -2 -7 33 c-10 45 -32 76 -63 88 -40 16 -115 5
-151 -20 -31 -23 -51 -21 -51 4 0 16 55 60 85 68 35 10 131 0 164 -17z m2115
-10 c48 -28 83 -84 88 -141 l3 -40 -167 -3 -167 -2 11 -33 c22 -66 70 -97 149
-97 35 0 63 7 85 21 52 32 76 3 32 -38 -82 -76 -255 -37 -307 69 -26 54 -28
136 -5 184 19 39 86 101 118 108 43 9 119 -4 160 -28z m3011 15 c68 -30 115
-104 115 -179 l0 -23 -159 3 c-88 2 -163 0 -166 -4 -13 -13 17 -68 49 -93 50
-37 101 -47 150 -29 22 9 54 18 69 21 47 9 30 -27 -25 -55 -153 -79 -324 36
-304 202 15 132 152 211 271 157z m622 0 c43 -20 79 -63 68 -81 -9 -15 -41
-12 -56 6 -46 56 -139 57 -195 3 -82 -80 -55 -214 51 -254 51 -20 85 -15 132
21 38 29 63 31 63 5 0 -27 -55 -67 -110 -82 -68 -17 -124 1 -181 60 -82 85
-86 187 -10 272 60 67 156 87 238 50z m579 -6 c83 -41 124 -125 109 -222 -6
-39 -16 -57 -53 -94 -79 -79 -173 -89 -265 -28 -56 37 -87 96 -87 165 1 156
155 249 296 179z m598 14 c21 -6 49 -21 62 -34 l24 -24 0 30 c0 27 3 30 27 27
l27 -3 3 -185 c4 -218 -6 -263 -70 -314 -37 -30 -43 -31 -130 -31 -105 0 -172
23 -172 60 0 24 15 24 103 0 84 -22 136 -13 179 30 30 30 33 39 33 92 l0 58
-23 -27 c-69 -81 -250 -51 -304 51 -81 155 65 319 241 270z m480 5 c9 -3 16
-17 16 -30 0 -25 14 -32 26 -13 12 20 88 49 129 49 57 0 105 -29 133 -81 21
-40 22 -53 20 -184 l-3 -140 -25 0 -25 0 -5 141 c-5 143 -9 159 -50 191 -46
35 -125 19 -170 -35 l-30 -37 0 -133 0 -133 -27 3 -28 3 -3 190 c-1 104 0 195
2 202 6 14 16 16 40 7z m660 0 c14 -5 16 -33 16 -205 l0 -199 -30 0 -29 0 -3
196 c-3 211 0 226 46 208z m1107 -22 c62 -32 102 -94 97 -152 l-3 -35 -162 -3
c-103 -1 -163 -6 -163 -13 0 -18 28 -64 54 -89 39 -35 140 -41 190 -10 38 23
56 20 56 -10 0 -32 -72 -62 -147 -62 -106 1 -179 56 -204 155 -23 92 20 184
104 223 68 31 113 30 178 -4z m3006 4 c62 -29 103 -85 111 -151 l5 -45 -161 3
c-88 1 -163 -1 -167 -5 -15 -14 13 -64 54 -95 34 -27 52 -33 90 -33 26 0 62 7
79 16 62 30 92 3 38 -34 -51 -35 -97 -44 -151 -32 -116 26 -175 97 -175 209 0
92 98 191 190 191 19 0 58 -11 87 -24z m411 -14 l3 -32 39 31 c23 18 54 33 79
36 40 6 41 5 41 -24 0 -28 -3 -31 -41 -36 -85 -11 -109 -61 -109 -227 l0 -121
-27 3 -28 3 -3 110 c-2 61 0 152 3 203 6 79 9 93 23 90 11 -2 18 -15 20 -36z
m470 -169 l2 -203 -24 0 c-14 0 -27 4 -30 8 -8 14 -10 377 -2 390 4 7 18 12
29 10 22 -3 22 -7 25 -205z m746 201 c14 -5 16 -33 16 -206 0 -178 -2 -199
-16 -194 -9 3 -22 6 -30 6 -19 0 -21 385 -1 393 6 3 13 6 14 6 1 1 8 -2 17 -5z
m562 -18 c66 -31 96 -73 102 -143 l5 -54 -162 2 c-89 1 -164 -1 -167 -4 -10
-9 34 -84 60 -100 14 -9 46 -21 72 -27 40 -9 52 -8 86 10 79 41 109 11 36 -37
-34 -23 -52 -28 -102 -27 -81 0 -137 30 -177 92 -28 43 -30 53 -27 118 5 105
43 153 148 188 34 11 78 4 126 -18z m-13586 -187 l0 -200 -27 3 -28 3 -3 198
-2 197 30 0 30 0 0 -201z m773 134 c4 -38 7 -128 7 -201 l0 -133 -32 3 -33 3
-3 185 c-1 101 0 190 2 197 3 7 16 13 29 13 22 0 25 -5 30 -67z m7111 58 c7
-10 -63 -108 -166 -234 -43 -52 -78 -98 -78 -102 0 -5 41 -5 90 -2 116 7 159
1 153 -23 -4 -15 -23 -18 -161 -22 -86 -3 -161 -2 -166 3 -14 13 22 65 199
279 25 30 45 58 45 63 0 4 -54 7 -120 7 -113 0 -120 1 -120 20 0 19 7 20 159
20 88 0 162 -4 165 -9z m-5103 -121 c25 -14 25 -61 0 -84 -48 -44 -122 15 -87
70 18 26 53 32 87 14z m7071 -7 c27 -24 23 -69 -8 -90 -24 -15 -29 -15 -53 -2
-14 8 -30 27 -35 42 -19 52 52 90 96 50z"/>
<path d="M4875 10984 c-95 -13 -237 -53 -379 -106 -146 -54 -1368 -464 -1796
-602 -96 -31 -211 -74 -255 -96 -143 -68 -235 -184 -270 -335 -14 -61 -16
-193 -12 -1189 4 -1213 4 -1203 62 -1496 31 -158 114 -463 153 -560 146 -364
326 -653 569 -910 333 -354 618 -571 1268 -965 188 -115 514 -297 561 -315
131 -48 267 -47 394 4 82 33 593 327 815 469 275 176 402 269 640 468 167 139
236 205 377 361 456 503 709 1130 758 1878 7 107 10 530 8 1200 l-3 1035 -23
66 c-26 79 -89 177 -140 219 -71 60 -201 111 -672 266 -261 86 -524 173 -585
194 -60 20 -270 90 -465 155 -195 65 -421 141 -501 171 -80 29 -179 59 -220
68 -79 16 -234 27 -284 20z m1636 -1750 c18 -20 95 -90 169 -156 132 -117 190
-175 190 -189 0 -4 -44 -56 -97 -115 -54 -59 -136 -150 -182 -203 -47 -53
-130 -145 -186 -206 -55 -60 -132 -146 -170 -190 -39 -44 -131 -148 -205 -230
-74 -83 -214 -240 -310 -350 -96 -109 -229 -260 -295 -334 -66 -75 -192 -219
-280 -321 -88 -101 -216 -247 -285 -324 -69 -78 -152 -175 -185 -216 -70 -89
-84 -101 -105 -90 -24 13 -110 99 -340 340 -230 240 -511 530 -753 777 -121
123 -148 155 -142 172 3 11 93 109 200 218 l194 198 128 -130 c127 -130 479
-502 623 -661 41 -45 78 -82 81 -83 5 -1 205 225 449 504 25 28 140 158 255
289 116 130 262 297 325 370 148 172 228 263 310 356 105 117 245 275 360 406
121 137 188 204 204 204 7 0 28 -16 47 -36z"/>
<path d="M24955 8723 c-159 -22 -281 -124 -370 -308 -57 -118 -90 -237 -116
-415 -19 -125 -21 -174 -16 -355 7 -253 25 -381 73 -523 45 -134 71 -180 151
-263 232 -241 577 -179 731 132 68 138 67 126 67 794 l0 600 -31 65 c-57 119
-157 208 -279 248 -63 21 -160 33 -210 25z"/>
<path d="M13195 7834 c-22 -19 -148 -90 -280 -156 -219 -111 -246 -127 -306
-187 -36 -36 -76 -85 -88 -108 -57 -113 -69 -332 -22 -423 37 -72 85 -123 142
-155 47 -25 67 -30 149 -33 79 -3 105 0 151 17 96 36 240 158 286 242 16 31
18 68 21 437 2 221 -1 402 -5 402 -4 -1 -26 -17 -48 -36z"/>
<path d="M16869 8730 c-175 -30 -318 -197 -393 -460 -18 -62 -46 -220 -46
-256 l0 -24 457 0 456 0 -6 128 c-12 232 -64 400 -157 505 -54 60 -110 93
-184 106 -65 12 -61 12 -127 1z"/>
<path d="M22742 8725 c-130 -29 -224 -117 -307 -290 -30 -60 -63 -146 -74
-190 -18 -73 -41 -214 -41 -252 0 -14 48 -15 455 -12 524 5 471 -9 461 118
-23 260 -91 468 -179 548 -85 76 -199 105 -315 78z"/>
<path d="M13543 5509 c-99 -29 -111 -212 -18 -269 67 -41 166 -16 200 50 20
38 22 130 3 160 -28 46 -125 77 -185 59z"/>
<path d="M20578 5482 c-36 -34 -42 -45 -46 -93 -8 -104 45 -169 138 -169 81 0
135 49 146 132 9 62 -16 111 -71 143 -65 39 -116 34 -167 -13z"/>
<path d="M25799 5497 c-92 -61 -91 -213 1 -259 43 -22 101 -23 139 -3 42 21
75 94 68 152 -6 54 -31 92 -78 115 -46 24 -89 22 -130 -5z"/>
<path d="M9467 5626 c-80 -30 -127 -101 -127 -191 0 -93 40 -155 125 -191 66
-27 134 -23 191 11 56 35 83 76 93 142 14 95 -23 174 -101 214 -53 27 -132 33
-181 15z"/>
<path d="M15232 5518 l3 -123 107 0 c124 0 153 13 177 82 13 35 13 46 0 78
-25 66 -54 80 -180 83 l-110 4 3 -124z"/>
<path d="M10777 5332 c-31 -34 -20 -85 24 -107 43 -23 99 -19 142 10 33 23 37
30 37 70 l0 45 -93 0 c-78 0 -97 -3 -110 -18z"/>
<path d="M12908 5504 c-26 -13 -68 -79 -68 -104 0 -6 50 -10 140 -10 100 0
140 3 140 12 0 29 -51 96 -81 107 -44 15 -99 13 -131 -5z"/>
<path d="M15936 5499 c-24 -19 -56 -77 -56 -100 0 -5 61 -9 135 -9 91 0 135 4
135 11 0 27 -36 83 -64 100 -43 26 -115 25 -150 -2z"/>
<path d="M17140 5502 c-44 -22 -80 -84 -80 -138 0 -45 28 -94 71 -126 32 -24
105 -26 148 -4 66 35 92 151 48 217 -26 39 -79 69 -122 69 -16 0 -46 -8 -65
-18z"/>
<path d="M17770 5502 c-39 -19 -80 -83 -80 -125 0 -87 113 -157 205 -127 113
37 115 199 2 250 -52 24 -82 25 -127 2z"/>
<path d="M19974 5501 c-28 -17 -64 -73 -64 -100 0 -7 45 -11 140 -11 153 0
155 1 120 58 -41 67 -132 92 -196 53z"/>
<path d="M23040 5522 c-44 -6 -121 -97 -105 -122 9 -14 265 -13 265 0 0 23
-41 90 -61 101 -32 17 -71 25 -99 21z"/>
<path d="M25200 5513 c-25 -9 -58 -44 -71 -75 -10 -25 -10 -31 2 -39 15 -9
259 -13 259 -4 0 22 -33 76 -59 98 -32 26 -89 35 -131 20z"/>
</g>
</svg>
